<svg xmlns="http://www.w3.org/2000/svg" version="1.1" xmlns:xlink="http://www.w3.org/1999/xlink" xmlns:svgjs="http://svgjs.dev/svgjs" width="1440" height="700" preserveAspectRatio="none" viewBox="0 0 1440 700">
    <g mask="url(&quot;#SvgjsMask1085&quot;)" fill="none">
        <path d="M1036.473,670.09C1078.589,671.499,1117.401,646.801,1137.989,610.033C1158.123,574.075,1155.286,530.412,1134.665,494.731C1114.061,459.08,1077.634,435.514,1036.473,434.382C993.235,433.192,948.832,450.905,928.453,489.057C908.944,525.581,924.86,568.053,946.077,603.612C966.618,638.037,996.407,668.75,1036.473,670.09" fill="rgba(3, 129, 1, 0.45)" class="triangle-float2"></path>
        <path d="M737.3297627641389 163.8995364063336L853.120583701112 194.9255933673323 841.7642586741234 5.726333481373388z" fill="rgba(3, 129, 1, 0.45)" class="triangle-float1"></path>
        <path d="M462.725,357.256C488.961,357.734,509.621,337.009,521.985,313.864C533.571,292.176,534.638,266.521,522.67,245.041C510.372,222.969,487.974,206.552,462.725,207.511C438.754,208.422,421.475,228.152,410.182,249.315C399.664,269.025,397.312,291.683,407.09,311.771C418.327,334.855,437.055,356.788,462.725,357.256" fill="rgba(3, 129, 1, 0.45)" class="triangle-float1"></path>
        <path d="M982.218,356.038C1024.315,355.099,1061.555,330.842,1082.685,294.42C1103.896,257.857,1105.848,213.786,1086.567,176.169C1065.36,134.794,1028.697,97.266,982.218,98.408C937.013,99.518,907.898,141.312,886.385,181.086C866.214,218.379,853.311,261.894,873.68,299.08C894.718,337.487,938.437,357.014,982.218,356.038" fill="rgba(3, 129, 1, 0.45)" class="triangle-float2"></path>
        <path d="M936.2494948262118 3.819914888074692L1046.2897979873371 144.66508012314628 1187.1349632224087 34.6247769620211 1077.0946600612833-106.22038827305049z" fill="rgba(3, 129, 1, 0.45)" class="triangle-float3"></path>
        <path d="M673.523081179047 447.0604092195158L636.6466842923082 575.6636883591387 765.2499634319312 612.5400852458777 802.12636031867 483.93680610625466z" fill="rgba(3, 129, 1, 0.45)" class="triangle-float1"></path>
        <path d="M732.4253216613752 417.4781925523598L672.2556549028743 220.67208048199933 475.4495428325138 280.8417472405002 535.6192095910146 477.64785931086067z" fill="rgba(3, 129, 1, 0.45)" class="triangle-float1"></path>
        <path d="M582.2306576953737 156.02333945661093L534.0462286839348 335.8500766609966 713.8729658883204 384.03450567243544 762.0573948997593 204.20776846804978z" fill="rgba(3, 129, 1, 0.45)" class="triangle-float2"></path>
        <path d="M1116.5550691978992 208.5912439727478L1016.5591355785931 319.6479792823784 1127.6158708882238 419.6439129016846 1227.6118045075298 308.58717759205393z" fill="rgba(3, 129, 1, 0.45)" class="triangle-float2"></path>
        <path d="M685.5996767884354 87.51353811540419L774.941537672139 71.760157534905 706.6405363595385-54.37594350040089z" fill="rgba(3, 129, 1, 0.45)" class="triangle-float2"></path>
        <path d="M631.112071929914 728.39850522574L591.1629135204469 579.3062163219913 442.0706246166982 619.2553747314585 482.0197830261653 768.3476636352071z" fill="rgba(3, 129, 1, 0.45)" class="triangle-float3"></path>
        <path d="M417.2816738261033 254.3845616558167L410.97616110624034 134.0682115619027 290.6598110123264 140.37372428176565 296.9653237321893 260.69007437567967z" fill="rgba(3, 129, 1, 0.45)" class="triangle-float2"></path>
        <path d="M821.878,578.751C874.182,579.474,919.455,546.259,946.096,501.243C973.298,455.278,984.077,397.528,956.027,352.075C929.025,308.319,873.295,299.875,821.878,299.956C770.65,300.037,714.76,308.536,688.461,352.498C661.653,397.311,676.949,452.906,703.473,497.887C729.493,542.013,770.657,578.043,821.878,578.751" fill="rgba(3, 129, 1, 0.45)" class="triangle-float3"></path>
        <path d="M91.759,465.277C114.285,464.662,129.593,445.124,140.741,425.541C151.732,406.233,159.929,383.545,149.431,363.965C138.474,343.528,114.948,334.282,91.759,334.182C68.375,334.081,44.83,343.166,33.223,363.466C21.687,383.642,26.331,408.201,37.915,428.349C49.542,448.571,68.442,465.914,91.759,465.277" fill="rgba(3, 129, 1, 0.45)" class="triangle-float3"></path>
        <path d="M836.8974893319595 371.0083493076271L910.6272833325851 294.6589125904452 834.2778466154032 220.9291185898196 760.5480526147776 297.2785553070015z" fill="rgba(3, 129, 1, 0.45)" class="triangle-float2"></path>
        <path d="M456.6324773967162 514.1506938441091L500.21014360706755 688.9311666085755 674.9906163715339 645.3535003982241 631.4129501611825 470.57302763375776z" fill="rgba(3, 129, 1, 0.45)" class="triangle-float1"></path>
        <path d="M1390.2891806911377 151.94465766794767L1332.8889028273354 43.99043597126169 1224.9346811306496 101.39071383506392 1282.3349589944519 209.3449355317499z" fill="rgba(3, 129, 1, 0.45)" class="triangle-float2"></path>
        <path d="M1125.652,71.39C1146.287,70.723,1163.822,57.877,1174.187,40.022C1184.601,22.084,1188.647,-0.442,1177.511,-17.941C1166.962,-34.517,1145.299,-36.045,1125.652,-36.249C1105.488,-36.458,1083.261,-35.693,1071.898,-19.035C1059.338,-0.623,1059.966,24.189,1071.355,43.348C1082.511,62.115,1103.83,72.096,1125.652,71.39" fill="rgba(3, 129, 1, 0.45)" class="triangle-float3"></path>
        <path d="M19.831763567443453 427.88904369406174L135.17655277674197 502.9512076513259 143.56824868353408 382.9443651604762z" fill="rgba(3, 129, 1, 0.45)" class="triangle-float3"></path>
        <path d="M601.4720016538287 23.236957440250464L711.7907118217852 199.7837985213029 778.0188427348811-87.08175272770607z" fill="rgba(3, 129, 1, 0.45)" class="triangle-float1"></path>
    </g>
    <defs>
        <mask id="SvgjsMask1085">
            <rect width="1440" height="700" fill="#ffffff"></rect>
        </mask>
        <style>
            @keyframes float1 {
                    0%{transform: translate(0, 0)}
                    50%{transform: translate(-10px, 0)}
                    100%{transform: translate(0, 0)}
                }

                .triangle-float1 {
                    animation: float1 5s infinite;
                }

                @keyframes float2 {
                    0%{transform: translate(0, 0)}
                    50%{transform: translate(-5px, -5px)}
                    100%{transform: translate(0, 0)}
                }

                .triangle-float2 {
                    animation: float2 4s infinite;
                }

                @keyframes float3 {
                    0%{transform: translate(0, 0)}
                    50%{transform: translate(0, -10px)}
                    100%{transform: translate(0, 0)}
                }

                .triangle-float3 {
                    animation: float3 6s infinite;
                }
        </style>
    </defs>
</svg>