<svg xmlns="http://www.w3.org/2000/svg" version="1.1" xmlns:xlink="http://www.w3.org/1999/xlink" xmlns:svgjs="http://svgjs.dev/svgjs" width="1440" height="700" preserveAspectRatio="none" viewBox="0 0 1440 700">
    <g mask="url(&quot;#SvgjsMask1150&quot;)" fill="none">
        <path d="M1003.3072667622697 718.0980251120027L993.6635619143062 607.8699743073868 833.1433381313642 677.4495569816401z" fill="rgba(3, 129, 1, 0.45)" class="triangle-float1"></path>
        <path d="M515.0029848019849 302.35921554865683L477.22367471354477 412.0782988585927 586.9427580234806 449.8576089470328 624.7220681119207 340.13852563709696z" fill="rgba(3, 129, 1, 0.45)" class="triangle-float1"></path>
        <path d="M1126.122287897798 577.5207288510261L990.8014846825064 492.96290624603716 906.2436620775175 628.2837094613288 1041.564465292809 712.8415320663178z" fill="rgba(3, 129, 1, 0.45)" class="triangle-float2"></path>
        <path d="M852.2330480662406 372.5200927102524L962.4145584942929 412.62288287255456 967.4779885237199 227.2992221493251z" fill="rgba(3, 129, 1, 0.45)" class="triangle-float2"></path>
        <path d="M711.3878017595695 229.94084469971102L629.7762287953927 371.29623555927975 771.1316196549615 452.90780852345654 852.7431926191382 311.5524176638878z" fill="rgba(3, 129, 1, 0.45)" class="triangle-float3"></path>
        <path d="M1132.4937525590942-17.930641194692726L1199.7131988694898 167.302346318182 1312.722603629632 37.29989736326304z" fill="rgba(3, 129, 1, 0.45)" class="triangle-float2"></path>
        <path d="M536.3567847953608 502.9210137519243L718.8901886929693 528.5744106967629 744.543585637808 346.0410067991545 562.0101817401994 320.3876098543158z" fill="rgba(3, 129, 1, 0.45)" class="triangle-float1"></path>
        <path d="M1436.0164649169833 222.7976368452275L1485.477792764736 79.15151048549404 1341.8316664050026 29.690182637741344 1292.3703385572499 173.3363089974748z" fill="rgba(3, 129, 1, 0.45)" class="triangle-float2"></path>
        <path d="M1204.8913788610828 343.35801510668387L1339.5412589115622 151.44758237611453 1135.7300357658291 130.0261596288202z" fill="rgba(3, 129, 1, 0.45)" class="triangle-float2"></path>
        <path d="M280.9759640548617 562.4754765170062L270.8055383177212 417.0316123614865 125.36167416220152 427.2020380986271 135.53209989934206 572.6459022541467z" fill="rgba(3, 129, 1, 0.45)" class="triangle-float1"></path>
        <path d="M175.17488789222156-78.78018086990073L224.47770805862254 118.96263022304674 372.91769898516907-128.0830010363017z" fill="rgba(3, 129, 1, 0.45)" class="triangle-float2"></path>
        <path d="M977.7325735220485 462.10212026823905L1196.8301235402403 512.9047577360801 1142.637896031528 323.914000778284z" fill="rgba(3, 129, 1, 0.45)" class="triangle-float1"></path>
        <path d="M804.5188609867522 441.9558202658174L833.7578781015015 357.0395487086128 691.76396220832 355.6391588150911z" fill="rgba(3, 129, 1, 0.45)" class="triangle-float3"></path>
        <path d="M909.2273218009703 342.08872829385757L897.8619266078194 233.9542162599505 789.7274145739124 245.3196114531014 801.0928097670633 353.4541234870085z" fill="rgba(3, 129, 1, 0.45)" class="triangle-float1"></path>
        <path d="M648.9612330525122 77.79378763806868L529.9073368468936-59.16205331344416 392.9514958953808 59.891842892174395 512.0053921009993 196.84768384368724z" fill="rgba(3, 129, 1, 0.45)" class="triangle-float1"></path>
        <path d="M618.1458572972272 623.827062891441L600.6539895578389 457.40305823384364 434.2299849002417 474.8949259732318 451.72185263962984 641.3189306308292z" fill="rgba(3, 129, 1, 0.45)" class="triangle-float1"></path>
        <path d="M1139.3435924922223 375.53943345556905L1020.0010509453871 354.49612343454106 998.9577409243591 473.8386649813763 1118.3002824711944 494.8819750024043z" fill="rgba(3, 129, 1, 0.45)" class="triangle-float3"></path>
        <path d="M653.2604984670252 244.58597506799973L722.2215658753461 96.69848876512933 574.3340795724756 27.737421356808426 505.3730121641548 175.62490765967885z" fill="rgba(3, 129, 1, 0.45)" class="triangle-float3"></path>
        <path d="M241.28325586207012 329.1769508898791L192.6605078713286 413.39402081346105 343.29748675207225 444.2196078377824z" fill="rgba(3, 129, 1, 0.45)" class="triangle-float3"></path>
        <path d="M1084.113170669096 162.36042779644228L1120.4029995473816 262.06591319540394 1183.8186560680576 126.0705989181568z" fill="rgba(3, 129, 1, 0.45)" class="triangle-float3"></path>
    </g>
    <defs>
        <mask id="SvgjsMask1150">
            <rect width="1440" height="700" fill="#ffffff"></rect>
        </mask>
        <style>
            @keyframes float1 {
                    0%{transform: translate(0, 0)}
                    50%{transform: translate(-10px, 0)}
                    100%{transform: translate(0, 0)}
                }

                .triangle-float1 {
                    animation: float1 5s infinite;
                }

                @keyframes float2 {
                    0%{transform: translate(0, 0)}
                    50%{transform: translate(-5px, -5px)}
                    100%{transform: translate(0, 0)}
                }

                .triangle-float2 {
                    animation: float2 4s infinite;
                }

                @keyframes float3 {
                    0%{transform: translate(0, 0)}
                    50%{transform: translate(0, -10px)}
                    100%{transform: translate(0, 0)}
                }

                .triangle-float3 {
                    animation: float3 6s infinite;
                }
        </style>
    </defs>
</svg>